<?xml version="1.0" encoding="UTF-8"?>
<svg id="Layer_1" data-name="Layer 1" xmlns="http://www.w3.org/2000/svg" viewBox="0 0 156.52 178.26">
  <defs>
    <style>
      .cls-1 {
        fill: #386990;
      }

      .cls-2 {
        fill: #999;
      }
    </style>
  </defs>
  <path class="cls-2" d="M38.09,160.55l34.77-15.82-35.07-16.37-34.4,15.94c.52.41,1.07.77,1.68,1.06l33.01,15.2Z"/>
  <path class="cls-2" d="M73.37,70.9c-11.87-5.38-23.9-10.82-35.98-16.3L2.97,70.26c11.7,5.38,23.47,10.81,35.21,16.24l35.19-15.6Z"/>
  <path class="cls-2" d="M80.53,106.13c12.59,5.84,25.37,11.77,38.21,17.72l35.61-16.2c-24.63-11.22-49.58-22.52-73.83-33.5v31.99Z"/>
  <path class="cls-2" d="M151.47,32.92l-33.03-15.2-34.77,15.82,72.67,33.92c0-2.31,0-4.63,0-6.94,0-6.47.01-13.16.07-19.75.03-3.37-1.91-6.44-4.95-7.84Z"/>
  <path class="cls-1" d="M.08,40.45c-.05,6.46-.06,13.04-.07,19.4,0,2.25,0,4.51-.01,6.76L112.89,15.25,81.65.79c-1.14-.53-2.36-.79-3.58-.79s-2.44.26-3.57.78h0L5.03,32.81C2.05,34.18.11,37.19.08,40.45Z"/>
  <path class="cls-1" d="M.17,108.31l-.05,29.17c0,.87.09,2.12.33,3.17l75.53-34.99v-30.95L.17,108.31Z"/>
  <path class="cls-1" d="M156.44,137.81c.05-6.47.06-13.06.07-19.43,0-2.24,0-4.48,0-6.73l-112.89,51.37,31.25,14.46c2.27,1.05,4.88,1.05,7.15,0l69.46-32.02c2.98-1.38,4.93-4.38,4.95-7.65Z"/>
</svg>